<svg xmlns="http://www.w3.org/2000/svg" fill="#333" height="30" width="30" xmlns:xlink="http://www.w3.org/1999/xlink" version="1.1" x="0px" y="0px" viewBox="0 0 512 512" enable-background="new 0 0 512 512" xml:space="preserve" ><g><g><polygon points="447.984,336 181.547,336 69.547,80 0.016,80 0.016,48 90.484,48 202.484,304 447.984,304   "></polygon></g><polygon points="511.984,112 447.984,272 224,272 160.016,112  "></polygon><path d="M287.984,416c0,26.5-21.484,48-47.984,48s-47.984-21.5-47.984-48S213.5,368,240,368S287.984,389.5,287.984,416z" fill="#333"></path><path d="M447.984,416c0,26.5-21.5,48-48,48s-48-21.5-48-48s21.5-48,48-48S447.984,389.5,447.984,416z" fill="#333"></path></g></svg>
