<svg xmlns="http://www.w3.org/2000/svg" xmlns:xlink="http://www.w3.org/1999/xlink" height="20" width="20" fill="#333" version="1.1" x="0px" y="0px" viewBox="0 0 512 512" enable-background="new 0 0 512 512" xml:space="preserve"><g><g><polygon points="448,384 181.563,384 69.563,128 0,128 0,96 90.5,96 202.5,352 448,352   "></polygon></g><path d="M288,464c0,26.5-21.5,48-48,48s-48-21.5-48-48s21.5-48,48-48S288,437.5,288,464z"></path><path fill="#333" d="M448,464c0,26.5-21.5,48-48,48s-48-21.5-48-48s21.5-48,48-48S448,437.5,448,464z"></path><g><path fill="#333" d="M400,0c-61.813,0-112,50.156-112,112s50.188,112,112,112c61.875,0,112-50.156,112-112S461.875,0,400,0z M464,128H336V96    h128V128z"></path></g><path d="M400,256c-62.5,0-115.25-40.25-135.125-96H160l64,160h224l36.938-92.313C461.063,245.25,431.875,256,400,256z"></path></g></svg>
